# xmcd
#
# Track frame offsets: 
#        150
#        12801
#        28272
#        43725
#        63274
#        82174
#        102259
#        119110
#        135142
#        148044
#        160478
#
# Disc length: 2428 seconds
#
# Revision: 0
# Processed by: cddbd v1.4PL0 Copyright (c) Steve Scherf et al.
# Submitted via: ExactAudioCopy v0.90b4
#
DISCID=98097a0b
DTITLE=Marcell and Friends - Still Alive
DYEAR=2003
DGENRE=Blues
TTITLE0=Mamma Told Me
TTITLE1=Oh Well
TTITLE2=Heartbeat Of My Life
TTITLE3=Ain't Got No Nothing
TTITLE4=J.B. Good
TTITLE5=Tribute To T.J. White
TTITLE6=Marcell's Chuffle
TTITLE7=Downtown Memphis
TTITLE8=Lazy Cheer
TTITLE9=Move Your Ash
TTITLE10=Sometimes I Wonder
EXTD=
EXTT0=
EXTT1=
EXTT2=
EXTT3=
EXTT4=
EXTT5=
EXTT6=
EXTT7=
EXTT8=
EXTT9=
EXTT10=
PLAYORDER=
